<svg xmlns="http://www.w3.org/2000/svg" viewBox="0 0 16 16" shape-rendering="crispEdges">
  <!-- Pixel slime icon - green blob -->
  <rect x="4" y="3" width="8" height="1" fill="#56d364"/>
  <rect x="2" y="4" width="12" height="1" fill="#56d364"/>
  <rect x="1" y="5" width="14" height="1" fill="#56d364"/>
  <rect x="1" y="6" width="14" height="1" fill="#56d364"/>
  <rect x="1" y="7" width="14" height="1" fill="#56d364"/>
  <rect x="1" y="8" width="14" height="1" fill="#56d364"/>
  <rect x="2" y="9" width="12" height="1" fill="#56d364"/>
  <rect x="3" y="10" width="10" height="1" fill="#56d364"/>
  <rect x="4" y="11" width="8" height="1" fill="#56d364"/>
  <rect x="3" y="12" width="4" height="1" fill="#3a9a44"/>
  <rect x="9" y="12" width="4" height="1" fill="#3a9a44"/>
  <!-- eyes -->
  <rect x="4" y="6" width="2" height="2" fill="#fff"/>
  <rect x="10" y="6" width="2" height="2" fill="#fff"/>
  <rect x="5" y="7" width="1" height="1" fill="#1a1a2e"/>
  <rect x="11" y="7" width="1" height="1" fill="#1a1a2e"/>
  <!-- shine -->
  <rect x="4" y="5" width="2" height="1" fill="#9ef09e"/>
  <!-- antenna -->
  <rect x="7" y="1" width="2" height="1" fill="#56d364"/>
  <rect x="7" y="2" width="2" height="1" fill="#56d364"/>
  <rect x="6" y="1" width="1" height="1" fill="#3a9a44"/>
  <rect x="9" y="1" width="1" height="1" fill="#3a9a44"/>
</svg>
